<svg id="filled_outline" data-name="filled outline" xmlns="http://www.w3.org/2000/svg" viewBox="0 0 340 340"><path d="M171.094,120.326H87.766L95.92,309.37a17.3,17.3,0,0,0,17.288,16.558c28.876-.014,84.986.011,113.855,0a17.3,17.3,0,0,0,17.288-16.558l8.155-189.044Z" style="fill:#f7f5fc"/><path d="M207.7,45.091c.655-4.862.312-9.679-3.323-13.343A89.076,89.076,0,0,0,184.14,15.7a13.131,13.131,0,0,0-13.054.2c-5.63,3.339-13.538,8.43-16.282,12.163l-9.528-2.22a13.111,13.111,0,0,0-14.083,5.825,119.953,119.953,0,0,0-11.861,24.253c4.773,12.012,23.142,17.912,45.838,21.865C186.775,67.648,207.541,57.423,207.7,45.091Z" style="fill:#fff"/><path d="M151.487,81.285l28.685-.355L206.251,63.9,207.7,45.091c-4.441-1.588-8.116-3.014-12.7-2.977C174.77,42.717,156.935,69.572,151.487,81.285Z" style="fill:#d0cde2"/><path d="M153.739,97.666s7.451-29.551,32.912-45.2A15.986,15.986,0,0,1,199.8,50.85a93.126,93.126,0,0,1,18.158,7.727l8.408-3.2a7.3,7.3,0,0,1,9.732,5.258l2.793,12.695,8.356,4.049a7.993,7.993,0,0,1,4.45,8.142l-1.452,12.143Z" style="fill:#fff"/><path d="M269.181,120.326H70.819l1.685-9.55a15.869,15.869,0,0,1,15.627-13.11H251.869a15.869,15.869,0,0,1,15.627,13.11Z" style="fill:#8095aa"/><path d="M158.281,51.006a17.675,17.675,0,0,0-22.439-.254l-8.935,7.233a73.318,73.318,0,0,0-7.567-2.06,63.287,63.287,0,0,0-3.211,14.184l35.3,11.176,28.739-.355,10.338-6.751a29.127,29.127,0,0,0-14.774-7.219C170.992,62,163.835,55.719,158.281,51.006Z" style="fill:#d0cde2"/><path d="M198.823,97.666C200.132,81.1,189.5,69.137,175.736,66.96c-.916-.957-1.941-1.972-3.009-3.008a86.175,86.175,0,0,0-18.988,33.714Z" style="fill:#d0cde2"/><path d="M88.131,97.666s-2.338-10.7,6.355-16.736l2.635-11.382a9.576,9.576,0,0,1,10.211-7.386c5.883.551,13.929,1.857,21.038,4.931l12.506-10.124a9.581,9.581,0,0,1,12.229.137c5.893,5,14.522,12.567,18.729,17.438,0,0,20.4.463,18.983,23.122Z" style="fill:#fff"/><path d="M88.131,97.666H190.817a28.457,28.457,0,0,0-.654-8.564H88.59A19.072,19.072,0,0,0,88.131,97.666Z" style="fill:#d0cde2"/><path d="M156.75,89.1a67.971,67.971,0,0,0-3.011,8.564h96.508l1.024-8.564Z" style="fill:#d0cde2"/><polygon points="253.794 132.326 254.522 120.326 85.478 120.326 86.206 132.326 253.794 132.326" style="fill:#d0cde2"/><path d="M182.205,19.2c7.24,4.109,20.8,14.274,21.621,19.848,1.073,5.136,8.767,3.673,7.856-1.514a17.006,17.006,0,0,0-4.416-8.554A92.588,92.588,0,0,0,186.074,12.2a17.2,17.2,0,0,0-17.028.26c-7.353,4.361-12.6,8.105-15.657,11.167l-7.205-1.678a17.113,17.113,0,0,0-18.379,7.595,134.578,134.578,0,0,0-8.871,16.5,4,4,0,1,0,7.3,3.262,126.528,126.528,0,0,1,8.344-15.509,9.124,9.124,0,0,1,9.786-4.054l9.406,2.191,12.006,3.582a12.3,12.3,0,0,0,8.844-.7l4.908-2.353a4,4,0,1,0-3.457-7.215c-7.5,3.658-5.56,3.3-13.44.976a113.288,113.288,0,0,1,10.491-6.885A9.173,9.173,0,0,1,182.205,19.2Z" style="fill:#2f313f"/><path d="M271.436,110.081a19.828,19.828,0,0,0-16.709-16.192l.944-7.89a12,12,0,0,0-6.678-12.217l-6.61-3.2-2.377-10.8a11.374,11.374,0,0,0-15.061-8.138l-6.663,2.535A100.489,100.489,0,0,0,201,47.034a19.97,19.97,0,0,0-16.443,2.026,69.227,69.227,0,0,0-9.26,6.83,4,4,0,1,0,5.262,6.026,61.348,61.348,0,0,1,8.187-6.04c7.145-4.171,13.455.159,21.043,3.028-3.246,1.856-7.26,5.5-11.288,3.758l-3.383-1.223a4,4,0,1,0-2.721,7.523l3.383,1.224A15.111,15.111,0,0,0,208.9,68.843l10.839-6.661,8.056-3.065a3.249,3.249,0,0,1,4.4,2.379l2.794,12.7a4,4,0,0,0,2.161,2.74c12.2,6.23,11.218,2.775,9.549,16.735H165.17a4,4,0,0,0,0,8h86.7a11.853,11.853,0,0,1,11.688,9.805l.857,4.855H75.586l.857-4.855a11.853,11.853,0,0,1,11.688-9.805H128.37c5.262-.127,5.286-7.865,0-8H91.852a11.737,11.737,0,0,1,4.915-9.45,4,4,0,0,0,1.616-2.383l2.635-11.382a5.588,5.588,0,0,1,5.941-4.306c5.3.5,13.02,1.7,19.744,4.587l9.86,5a12.885,12.885,0,0,0,7.75,1.26l4.3-.637a4,4,0,1,0-1.173-7.914l-4.3.637c-2.1.533-5.632-1.986-7.454-2.761l7.708-6.24a5.587,5.587,0,0,1,7.125.079c8.7,7.385,15.2,13.424,18.289,17a4.045,4.045,0,0,0,2.915,1.383c.078,0,7.9.333,12.171,6.19a4,4,0,1,0,6.462-4.715c-5.121-7.018-13.019-8.838-16.585-9.308-4.532-4.921-12.206-11.669-18.077-16.651a13.591,13.591,0,0,0-17.334-.2L127.683,62.5a79.423,79.423,0,0,0-19.978-4.323,13.605,13.605,0,0,0-14.48,10.466l-2.308,9.969a19.791,19.791,0,0,0-7.068,15.533,19.829,19.829,0,0,0-15.285,15.933l-1.685,9.549a4.026,4.026,0,0,0,3.939,4.7H81.63L88.852,309.9a20.776,20.776,0,0,0,20.821,20.027H230.327A20.776,20.776,0,0,0,251.148,309.9l7.222-185.575h10.812a4.026,4.026,0,0,0,3.939-4.7Zm-89.853,14.245-28.791,33.046-30.087-33.046ZM91.707,177.557l24.962-28.652a4,4,0,1,0-6.031-5.256L91.254,165.9l-1.618-41.573h22.249L147.5,163.445l-29.9,34.315-11.492-12.623a4,4,0,0,0-5.916,5.387l12.117,13.309L93.567,225.351Zm2.314,59.452,23.715-27.221,23.015,25.278L113.536,266.3l-19.2-21.084Zm.8,20.626,13.421,14.742-12.3,14.116Zm14.849,64.293A12.8,12.8,0,0,1,96.846,309.59L96.4,298.151l49.772-57.129,15,16.471a4,4,0,0,0,5.916-5.387l-15.621-17.158,29.9-34.314,22.685,24.916-62.4,71.625L128.188,282.4a4,4,0,0,0-5.917,5.387l14.081,15.465-16.275,18.68Zm99.662-102.451-22.684-24.916,30.011-34.447,22.685,24.916Zm.132,12.028,24.113,26.486-29.9,34.315L179.57,265.82Zm-78.779,90.423L141.774,309.2l11.585,12.725Zm33.491,0-17.114-18.8,27.214-31.237,24.114,26.486-20.517,23.549Zm24.307,0,15.329-17.594,16.019,17.594Zm54.668-12.338a12.79,12.79,0,0,1-12.514,12.323l-21.534-23.652,36.1-41.437Zm2.55-65.514-6.833,7.843-24.114-26.486,30.012-34.448,2.878,3.161Zm2.7-69.445-3.768,4.326-22.685-24.916,13.789-15.828c3.383-4.017-2.5-9.162-6.031-5.255l-48.482,55.648-14.981-16.455a4,4,0,1,0-5.916,5.386l15.606,17.141-29.9,34.315-23.015-25.278,65.2-74.835,15.107,16.593a4,4,0,0,0,5.916-5.387L194.9,124.326h55.464Z" style="fill:#2f313f"/><path d="M147.741,93.666h-1.72c-5.275.134-5.274,7.867,0,8h1.719C153.016,101.533,153.016,93.8,147.741,93.666Z" style="fill:#2f313f"/></svg>