<svg xmlns="http://www.w3.org/2000/svg" viewBox="0 0 32 32"><g id="bluetooth"><path d="M25.54,21.19l-7.49-4.86,7.38-3.49a1,1,0,0,0,.28-1.61l-9-8.94h0l0,0a1.21,1.21,0,0,0-.28-.18.77.77,0,0,0-.3-.06L16,2h0a1,1,0,0,0-.38.08.93.93,0,0,0-.33.21h0l0,0a1,1,0,0,0-.18.28.88.88,0,0,0-.07.32S15,3,15,3V14.35L8.54,10.16a1,1,0,1,0-1.08,1.68L14,16.05l-6.38,3A1,1,0,0,0,8,21a1.11,1.11,0,0,0,.43-.09L15,17.77V29a1,1,0,0,0,.56.9,1,1,0,0,0,1-.11l9-7A1,1,0,0,0,26,22,1,1,0,0,0,25.54,21.19ZM17,5.4l6.28,6.24-6.28,3ZM17,27V18l6.27,4.07Z"/></g></svg>